<?xml version="1.0" encoding="UTF-8"?>
<svg id="Layer_2" data-name="Layer 2" xmlns="http://www.w3.org/2000/svg" viewBox="0 0 933.92 664.27">
  <defs>
    <style>
      .cls-1 {
        fill: #fff;
      }
    </style>
  </defs>
  <g id="Layer_1-2" data-name="Layer 1">
    <path class="cls-1" d="m375.24,406.59c-26.57-75.05-97.92-128.84-181.98-128.84C86.48,277.76,0,364.24,0,471.01s86.48,193.26,193.26,193.26c84.07,0,155.41-53.79,181.98-128.84h140.11v128.84h128.84v-128.84h64.42v-128.84h-333.37Zm-181.98,128.84c-35.59,0-64.42-28.83-64.42-64.42s28.83-64.42,64.42-64.42,64.42,28.83,64.42,64.42-28.83,64.42-64.42,64.42Z"/>
    <path class="cls-1" d="m705.98,342.63v-64.72c49.65-26.49,86.69-54.13,111.12-82.92,24.43-28.79,36.64-58.49,36.64-89.11,0-15.38-3.77-26.92-11.3-34.62-7.54-7.69-19-11.54-34.38-11.54-13.48,0-27.56,3.73-42.23,11.18-14.67,7.46-27.33,17.37-37.95,29.74l-36.64-42.59c11.74-17.45,28.39-31.49,49.97-42.12,21.57-10.62,44.17-15.94,67.81-15.94,36.96,0,64.64,8.45,83.04,25.34,18.4,16.89,27.6,42.39,27.6,76.5,0,31.88-9.36,62.46-28.08,91.73-18.72,29.27-47.19,57.38-85.42,84.35v64.72h-100.17Zm14.28,0v-55.68h213.67v55.68h-213.67Z"/>
  </g>
</svg>