<?xml version="1.0" encoding="UTF-8"?>
<svg id="Layer_2" data-name="Layer 2" xmlns="http://www.w3.org/2000/svg" viewBox="0 0 928.21 659.51">
  <defs>
    <style>
      .cls-1 {
        fill: #fff;
      }
    </style>
  </defs>
  <g id="Layer_1-2" data-name="Layer 1">
    <path class="cls-1" d="m375.24,401.83c-26.57-75.05-97.92-128.84-181.98-128.84C86.48,273,0,359.48,0,466.25s86.48,193.26,193.26,193.26c84.07,0,155.41-53.79,181.98-128.84h140.11v128.84h128.84v-128.84h64.42v-128.84h-333.37Zm-181.98,128.84c-35.59,0-64.42-28.83-64.42-64.42s28.83-64.42,64.42-64.42,64.42,28.83,64.42,64.42-28.83,64.42-64.42,64.42Z"/>
    <path class="cls-1" d="m710.26,337.87v-55.68h86.85v55.68h-86.85Zm4.76-249.36V28.55L792.35,0v60.91l-77.33,27.6Zm77.33,249.36V0h62.82v337.87h-62.82Zm58.06,0v-55.68h77.81v55.68h-77.81Z"/>
  </g>
</svg>