<svg viewBox="0 0 65 79" fill="none" xmlns="http://www.w3.org/2000/svg">
<path d="M62.9241 26.9338C62.461 27.2893 54.2851 31.8481 54.2851 41.9848C54.2851 53.7096 64.6886 57.8575 65 57.9602C64.9521 58.213 63.3473 63.6409 59.5148 69.1714C56.0975 74.0383 52.5286 78.8973 47.0993 78.8973C41.6699 78.8973 40.2727 75.7765 34.005 75.7765C27.8971 75.7765 25.7253 79 20.7591 79C15.7929 79 12.3277 74.4965 8.34357 68.966C3.72866 62.4715 0 52.3822 0 42.8065C0 27.4473 10.0921 19.3016 20.0246 19.3016C25.3022 19.3016 29.7015 22.7306 33.015 22.7306C36.1688 22.7306 41.0871 19.0962 47.0913 19.0962C49.3668 19.0962 57.5427 19.3016 62.9241 26.9338ZM44.2409 12.5939C46.724 9.67847 48.4805 5.63326 48.4805 1.58806C48.4805 1.0271 48.4326 0.458246 48.3288 0C44.2888 0.150115 39.4823 2.66257 36.584 5.9888C34.3084 8.54866 32.1846 12.5939 32.1846 16.6944C32.1846 17.3106 32.2884 17.9269 32.3363 18.1244C32.5918 18.1718 33.007 18.2271 33.4222 18.2271C37.047 18.2271 41.6061 15.8253 44.2409 12.5939Z" fill="white"/>
</svg>
