<?xml version="1.0" encoding="UTF-8"?>
<svg id="Layer_2" data-name="Layer 2" xmlns="http://www.w3.org/2000/svg" viewBox="0 0 1548.98 776.84">
  <defs>
    <style>
      .cls-1 {
        fill: #fff;
      }
    </style>
  </defs>
  <g id="Laag_1" data-name="Laag 1">
    <path class="cls-1" d="m1434.66,250.53c49.4,7.08,89.34,14.69,114.32,19.74-32.34,25.12-64.8,46.08-96.78,63.64-342.5,187.99-745.43,48.19-898.88-14.58-8.9,3.34-22.27,8.38-38.45,14.58-102.56,39.38-166.33,67.73-204.17,83.52-110.91,46.31-260.83,108.91-287.69,72.92-6.65-8.91-7.73-26.51,13.63-64.4,18.99-33.68,44.45-63.27,74.5-87.6,59.83-48.44,113.16-66.41,153.16-73.39,56.49-9.84,65.07,5.97,250.57,9.28,57.53,1.03,96.97.21,141.86-3.98,64.22-5.98,110.93-16.17,127.92-19.74-17-3.57-63.7-13.75-127.92-19.74-44.89-4.19-84.33-5.01-141.86-3.98-185.5,3.31-194.08,19.13-250.57,9.28-40-6.97-93.34-24.95-153.18-73.4-30.05-24.33-55.51-53.91-74.49-87.59C15.27,37.2,16.35,19.6,23,10.69c26.86-35.98,176.78,26.61,287.69,72.92,37.84,15.8,101.61,44.15,204.17,83.52,16.17,6.22,29.55,11.26,38.45,14.58,153.45-62.78,556.37-202.58,898.88-14.58,31.98,17.55,64.45,38.53,96.78,63.64-24.97,5.07-64.91,12.68-114.31,19.76Z"/>
    <g>
      <path class="cls-1" d="m159.95,726.82c1.63,0,2.87.57,3.74,1.72l12.65,18.54c.38.48.57,1.1.57,1.87,0,.96-.27,1.89-.79,2.8-.53.91-1.27,1.7-2.23,2.37-8.24,6.9-18.2,12.36-29.89,16.38s-23.09,6.04-34.2,6.04c-20.03,0-38.44-4.84-55.26-14.51-16.81-9.68-30.11-22.8-39.88-39.38-9.77-16.57-14.66-34.78-14.66-54.61s4.89-38.2,14.66-54.83c9.77-16.62,23.07-29.77,39.88-39.45s35.23-14.51,55.26-14.51c10.63,0,21.82,2.06,33.56,6.18,11.73,4.12,22.11,9.58,31.11,16.38,1.92,1.53,2.87,3.16,2.87,4.89,0,.86-.24,1.63-.72,2.3l-12.93,18.25c-.77,1.25-1.96,1.87-3.59,1.87-1.44,0-2.87-.58-4.31-1.72-7-5.17-14.54-9.27-22.63-12.29-8.1-3.02-15.88-4.53-23.35-4.53-14.18,0-27.16,3.45-38.95,10.35-11.78,6.9-21.13,16.26-28.02,28.1-6.9,11.83-10.35,24.84-10.35,39.02s3.45,27.02,10.35,38.8c6.9,11.78,16.26,21.1,28.1,27.95,11.83,6.85,24.79,10.28,38.87,10.28,7.47,0,15.26-1.48,23.35-4.46,8.09-2.97,15.5-7.04,22.2-12.22,1.52-1.05,3.05-1.58,4.59-1.58Z"/>
      <path class="cls-1" d="m390.17,769.08c0,1.25-.41,2.21-1.22,2.87-.82.67-1.99,1.01-3.52,1.01h-24.14c-1.34,0-2.56-.43-3.67-1.29-1.1-.86-1.89-2.01-2.37-3.45l-15.66-41.1h-92.55l-15.52,40.96c-.48,1.44-1.32,2.59-2.52,3.45-1.2.86-2.47,1.29-3.81,1.29h-24c-3.07,0-4.6-1.2-4.6-3.59,0-.86.19-1.72.57-2.59l80.77-199.18c.57-1.53,1.46-2.73,2.66-3.59,1.2-.86,2.51-1.29,3.95-1.29h17.82c1.44,0,2.75.46,3.95,1.37s2.03,2.08,2.52,3.52l80.77,199.18c.38,1.13.57,1.95.57,2.43Zm-61.07-69.7l-35.78-94.13-35.78,94.13h71.56Z"/>
      <path class="cls-1" d="m566.08,768.79c0,1.15-.38,2.11-1.15,2.87-.77.77-1.77,1.15-3.02,1.15h-26.3c-1.34,0-2.47-.33-3.38-1.01-.91-.67-1.85-1.82-2.8-3.45l-34.92-66.25h-42.68v65.25c0,1.72-.46,3.07-1.37,4.02-.91.96-2.23,1.44-3.95,1.44h-21.7c-3.45,0-5.17-1.82-5.17-5.46v-199.18c0-1.63.48-2.95,1.44-3.95.96-1.01,2.2-1.51,3.74-1.51h67.25c13.99,0,26.49,2.92,37.51,8.77,11.02,5.84,19.59,14.08,25.72,24.72,6.13,10.63,9.2,22.8,9.2,36.5s-3.33,26.66-9.99,37.44-15.83,18.95-27.52,24.5l38.51,72c.38.66.58,1.38.58,2.15Zm-114.25-97.44h40.24c7.66,0,14.54-1.67,20.62-5.03,6.08-3.35,10.83-7.95,14.23-13.8,3.4-5.84,5.1-12.45,5.1-19.83s-1.7-14.32-5.1-20.26c-3.4-5.94-8.14-10.58-14.23-13.94-6.09-3.35-12.96-5.03-20.62-5.03h-40.24v77.89Z"/>
      <path class="cls-1" d="m710.29,571.47c10.97,5.84,19.52,14.08,25.65,24.72,6.13,10.63,9.2,22.85,9.2,36.65s-3.07,25.68-9.2,36.22c-6.13,10.54-14.68,18.71-25.65,24.5-10.97,5.8-23.5,8.69-37.58,8.69h-37.94v65.1c0,1.72-.46,3.07-1.37,4.02-.91.96-2.23,1.44-3.95,1.44h-21.7c-3.45,0-5.17-1.82-5.17-5.46v-199.18c0-1.63.48-2.95,1.44-3.95.96-1.01,2.2-1.51,3.74-1.51h64.96c14.08,0,26.6,2.92,37.57,8.76Zm-16.96,94.85c6.08-3.35,10.85-7.95,14.3-13.8,3.45-5.84,5.17-12.45,5.17-19.83s-1.7-14.18-5.1-20.12c-3.4-5.94-8.17-10.59-14.3-13.94s-13.03-5.03-20.69-5.03h-37.94v77.75h37.94c7.67,0,14.54-1.67,20.62-5.03Z"/>
      <path class="cls-1" d="m1016.18,769.08c0,1.25-.41,2.21-1.22,2.87-.81.67-1.99,1.01-3.52,1.01h-24.14c-1.34,0-2.56-.43-3.67-1.29-1.1-.86-1.89-2.01-2.37-3.45l-15.67-41.1h-92.55l-15.52,40.96c-.48,1.44-1.32,2.59-2.51,3.45-1.2.86-2.47,1.29-3.81,1.29h-24c-3.07,0-4.6-1.2-4.6-3.59,0-.86.19-1.72.58-2.59l80.77-199.18c.58-1.53,1.46-2.73,2.66-3.59,1.2-.86,2.51-1.29,3.95-1.29h17.82c1.44,0,2.75.46,3.95,1.37s2.03,2.08,2.51,3.52l80.77,199.18c.38,1.13.57,1.95.57,2.43Zm-61.07-69.7l-35.78-94.13-35.78,94.13h71.56Z"/>
      <path class="cls-1" d="m1155.73,652.38v116.55c0,1.25-.36,2.23-1.08,2.95-.72.72-1.75,1.08-3.09,1.08h-18.4c-2.21,0-3.5-.91-3.88-2.73l-2.44-12.79c-4.6,6.04-10.33,10.78-17.17,14.23-6.85,3.45-14.21,5.17-22.06,5.17-10.25,0-19.16-2.3-26.73-6.9-7.57-4.6-13.37-11.16-17.39-19.69s-6.04-18.54-6.04-30.04v-67.69c0-1.34.38-2.37,1.15-3.09.77-.72,1.77-1.08,3.02-1.08h22.99c1.34,0,2.37.36,3.09,1.08.72.72,1.08,1.75,1.08,3.09v67.98c0,4.89,1.22,9.34,3.67,13.37,2.44,4.02,5.75,7.21,9.92,9.56s8.69,3.52,13.58,3.52c5.17,0,9.94-1.22,14.3-3.66,4.36-2.44,7.83-5.84,10.42-10.2,2.59-4.36,3.88-9.27,3.88-14.73v-65.96c0-2.78,1.34-4.17,4.02-4.17h23.14c2.67-.02,4.02,1.37,4.02,4.15Z"/>
      <path class="cls-1" d="m1312.88,563.64c.72.72,1.08,1.75,1.08,3.09v201.77c0,1.34-.36,2.4-1.08,3.16-.72.77-1.75,1.15-3.09,1.15h-18.83c-.77,0-1.46-.22-2.08-.65-.62-.43-1.03-.98-1.22-1.65l-2.59-16.81c-5.08,7.28-11.45,12.91-19.11,16.89-7.67,3.97-16.1,5.96-25.29,5.96-11.31,0-21.51-2.87-30.61-8.62s-16.24-13.65-21.41-23.71-7.76-21.32-7.76-33.77,2.56-23.71,7.69-33.77c5.12-10.06,12.24-17.94,21.34-23.64s19.35-8.55,30.75-8.55c8.72,0,16.69,1.75,23.93,5.25,7.23,3.5,13.39,8.46,18.47,14.87l-.43-97.87c0-1.24.36-2.25,1.08-3.02s1.7-1.15,2.95-1.15h23.14c1.32,0,2.35.35,3.07,1.07Zm-48.15,177.92c5.51-3.21,9.87-7.57,13.08-13.08s4.81-11.57,4.81-18.18-1.61-12.48-4.81-17.89c-3.21-5.41-7.59-9.7-13.15-12.86s-11.64-4.74-18.25-4.74-12.34,1.58-17.75,4.74-9.7,7.47-12.86,12.93-4.74,11.4-4.74,17.82,1.58,12.67,4.74,18.18,7.45,9.87,12.86,13.08,11.38,4.81,17.89,4.81,12.67-1.6,18.18-4.81Z"/>
      <path class="cls-1" d="m1354.77,607.83c-2.97-1.72-5.34-4.05-7.11-6.97s-2.66-6.11-2.66-9.56.88-6.66,2.66-9.63c1.77-2.97,4.14-5.32,7.11-7.04s6.18-2.59,9.63-2.59,6.66.86,9.63,2.59c2.97,1.72,5.32,4.07,7.04,7.04,1.72,2.97,2.59,6.18,2.59,9.63s-.86,6.64-2.59,9.56c-1.72,2.92-4.07,5.25-7.04,6.97-2.97,1.72-6.18,2.59-9.63,2.59s-6.66-.86-9.63-2.59Zm24.07,41.25c.72.67,1.08,1.63,1.08,2.87v116.98c0,1.25-.36,2.21-1.08,2.87-.72.67-1.7,1.01-2.95,1.01h-23.28c-2.59,0-3.88-1.29-3.88-3.88v-116.98c0-2.59,1.29-3.88,3.88-3.88h23.28c1.25,0,2.23.34,2.95,1.01Z"/>
      <path class="cls-1" d="m1413.91,677.32c5.99-10.11,14.11-18.11,24.36-24s21.51-8.84,33.77-8.84,23.38,2.95,33.63,8.84,18.35,13.89,24.29,24c5.94,10.11,8.91,21.2,8.91,33.27s-3,23.14-8.98,33.2c-5.99,10.06-14.08,18.04-24.29,23.93s-21.39,8.84-33.56,8.84-23.52-2.92-33.77-8.77c-10.25-5.84-18.37-13.82-24.36-23.93s-8.98-21.2-8.98-33.27c-.01-12.08,2.99-23.16,8.98-33.27Zm27.09,51.08c3.16,5.46,7.47,9.8,12.93,13.01,5.46,3.21,11.45,4.81,17.96,4.81s12.53-1.6,18.04-4.81,9.84-7.52,13.01-12.93c3.16-5.41,4.74-11.38,4.74-17.89s-1.58-12.53-4.74-18.04c-3.16-5.51-7.5-9.87-13.01-13.08s-11.52-4.81-18.04-4.81-12.5,1.61-17.96,4.81c-5.46,3.21-9.77,7.57-12.93,13.08s-4.74,11.52-4.74,18.04c-.01,6.41,1.57,12.35,4.74,17.81Z"/>
    </g>
  </g>
</svg>